<svg width="34" height="27" viewBox="0 0 34 27" fill="none" xmlns="http://www.w3.org/2000/svg">
<path fill-rule="evenodd" clip-rule="evenodd" d="M2 15C2 20.5228 6.47715 25 12 25C17.5228 25 22 20.5228 22 15C22 9.47715 17.5228 5 12 5C6.47715 5 2 9.47715 2 15ZM12 8.75L12.6107 12.4716C12.7793 13.499 13.5671 14.3144 14.5881 14.5183L17 15L14.5881 15.4817C13.5671 15.6856 12.7793 16.501 12.6107 17.5284L12 21.25L11.3893 17.5284C11.2207 16.501 10.4329 15.6856 9.4119 15.4817L7 15L9.4119 14.5183C10.4329 14.3144 11.2207 13.499 11.3893 12.4716L12 8.75ZM15.4588 10.9676L15.3 10L15.1412 10.9676C15.0974 11.2347 14.8926 11.4467 14.6271 11.4998L14 11.625L14.6271 11.7502C14.8926 11.8033 15.0974 12.0153 15.1412 12.2824L15.3 13.25L15.4588 12.2824C15.5026 12.0153 15.7074 11.8033 15.9729 11.7502L16.6 11.625L15.9729 11.4998C15.7074 11.4467 15.5026 11.2347 15.4588 10.9676Z" fill="#798392"/>
<rect x="10" width="24" height="15" rx="7.5" fill="#E0FE10"/>
<path d="M18.358 11H16.2273L18.6278 3.72727H21.3267L23.7273 11H21.5966L20.0057 5.73011H19.9489L18.358 11ZM17.9602 8.13068H21.9659V9.60795H17.9602V8.13068ZM26.4022 3.72727V11H24.4277V3.72727H26.4022Z" fill="#030000"/>
</svg>
