<svg width="97" height="27" viewBox="0 0 97 27" fill="none" xmlns="http://www.w3.org/2000/svg">
<path d="M0 10C0 4.47715 4.47715 0 10 0H87C92.5228 0 97 4.47715 97 10V17C97 22.5228 92.5228 27 87 27H10C4.47715 27 0 22.5228 0 17V10Z" fill="#B2CA0D"/>
<g filter="url(#filter0_b_209_4)">
<path d="M12.1902 17V9.8H15.2302C15.3002 9.8 15.3936 9.80333 15.5102 9.81C15.6302 9.81333 15.7369 9.82333 15.8302 9.84C16.2602 9.90667 16.6119 10.0483 16.8852 10.265C17.1619 10.4817 17.3652 10.755 17.4952 11.085C17.6252 11.4117 17.6902 11.7767 17.6902 12.18C17.6902 12.5833 17.6236 12.95 17.4902 13.28C17.3602 13.6067 17.1569 13.8783 16.8802 14.095C16.6069 14.3117 16.2569 14.4533 15.8302 14.52C15.7369 14.5333 15.6302 14.5433 15.5102 14.55C15.3902 14.5567 15.2969 14.56 15.2302 14.56H13.5502V17H12.1902ZM13.5502 13.29H15.1702C15.2402 13.29 15.3169 13.2867 15.4002 13.28C15.4836 13.2733 15.5602 13.26 15.6302 13.24C15.8136 13.19 15.9552 13.1067 16.0552 12.99C16.1552 12.87 16.2236 12.7383 16.2602 12.595C16.3002 12.4483 16.3202 12.31 16.3202 12.18C16.3202 12.05 16.3002 11.9133 16.2602 11.77C16.2236 11.6233 16.1552 11.4917 16.0552 11.375C15.9552 11.255 15.8136 11.17 15.6302 11.12C15.5602 11.1 15.4836 11.0867 15.4002 11.08C15.3169 11.0733 15.2402 11.07 15.1702 11.07H13.5502V13.29ZM21.7841 17.15C21.0641 17.15 20.4425 16.9933 19.9191 16.68C19.3991 16.3667 18.9975 15.9283 18.7141 15.365C18.4341 14.8017 18.2941 14.1467 18.2941 13.4C18.2941 12.6533 18.4341 11.9983 18.7141 11.435C18.9975 10.8717 19.3991 10.4333 19.9191 10.12C20.4425 9.80667 21.0641 9.65 21.7841 9.65C22.5041 9.65 23.1241 9.80667 23.6441 10.12C24.1675 10.4333 24.5691 10.8717 24.8491 11.435C25.1325 11.9983 25.2741 12.6533 25.2741 13.4C25.2741 14.1467 25.1325 14.8017 24.8491 15.365C24.5691 15.9283 24.1675 16.3667 23.6441 16.68C23.1241 16.9933 22.5041 17.15 21.7841 17.15ZM21.7841 15.87C22.2408 15.8767 22.6208 15.7783 22.9241 15.575C23.2275 15.3717 23.4541 15.0833 23.6041 14.71C23.7575 14.3367 23.8341 13.9 23.8341 13.4C23.8341 12.9 23.7575 12.4667 23.6041 12.1C23.4541 11.7333 23.2275 11.4483 22.9241 11.245C22.6208 11.0417 22.2408 10.9367 21.7841 10.93C21.3275 10.9233 20.9475 11.0217 20.6441 11.225C20.3408 11.4283 20.1125 11.7167 19.9591 12.09C19.8091 12.4633 19.7341 12.9 19.7341 13.4C19.7341 13.9 19.8091 14.3333 19.9591 14.7C20.1125 15.0667 20.3408 15.3517 20.6441 15.555C20.9475 15.7583 21.3275 15.8633 21.7841 15.87ZM27.4795 17L25.3695 9.8H26.7995L28.1495 14.75L29.4995 9.81L30.9295 9.8L32.2795 14.75L33.6295 9.8H35.0595L32.9495 17H31.6095L30.2145 12.14L28.8195 17H27.4795ZM35.8621 17V9.8H40.5621V11.07H37.2221V12.61H39.9621V13.88H37.2221V15.73H40.5621V17H35.8621ZM41.7605 17V9.8H44.8005C44.8705 9.8 44.9639 9.80333 45.0805 9.81C45.2005 9.81333 45.3072 9.82333 45.4005 9.84C45.8305 9.90667 46.1822 10.0483 46.4555 10.265C46.7322 10.4817 46.9355 10.755 47.0655 11.085C47.1955 11.4117 47.2605 11.7767 47.2605 12.18C47.2605 12.7833 47.1105 13.3 46.8105 13.73C46.5105 14.1567 46.0405 14.42 45.4005 14.52L44.8005 14.56H43.1205V17H41.7605ZM45.8205 17L44.4005 14.07L45.8005 13.8L47.3605 17H45.8205ZM43.1205 13.29H44.7405C44.8105 13.29 44.8872 13.2867 44.9705 13.28C45.0539 13.2733 45.1305 13.26 45.2005 13.24C45.3839 13.19 45.5255 13.1067 45.6255 12.99C45.7255 12.87 45.7939 12.7383 45.8305 12.595C45.8705 12.4483 45.8905 12.31 45.8905 12.18C45.8905 12.05 45.8705 11.9133 45.8305 11.77C45.7939 11.6233 45.7255 11.4917 45.6255 11.375C45.5255 11.255 45.3839 11.17 45.2005 11.12C45.1305 11.1 45.0539 11.0867 44.9705 11.08C44.8872 11.0733 44.8105 11.07 44.7405 11.07H43.1205V13.29ZM48.4598 17V9.8H53.1598V11.07H49.8198V12.61H52.5598V13.88H49.8198V15.73H53.1598V17H48.4598ZM54.3582 17V9.8H56.6882C56.7449 9.8 56.8615 9.80167 57.0382 9.805C57.2149 9.80833 57.3849 9.82 57.5482 9.84C58.1282 9.91 58.6199 10.1117 59.0232 10.445C59.4265 10.7783 59.7332 11.2017 59.9432 11.715C60.1532 12.2283 60.2582 12.79 60.2582 13.4C60.2582 14.01 60.1532 14.5717 59.9432 15.085C59.7332 15.5983 59.4265 16.0217 59.0232 16.355C58.6199 16.6883 58.1282 16.89 57.5482 16.96C57.3849 16.98 57.2149 16.9917 57.0382 16.995C56.8615 16.9983 56.7449 17 56.6882 17H54.3582ZM55.7382 15.72H56.6882C56.7782 15.72 56.8999 15.7183 57.0532 15.715C57.2065 15.7083 57.3449 15.6933 57.4682 15.67C57.7815 15.6067 58.0365 15.46 58.2332 15.23C58.4332 15 58.5799 14.7233 58.6732 14.4C58.7699 14.0767 58.8182 13.7433 58.8182 13.4C58.8182 13.04 58.7682 12.6983 58.6682 12.375C58.5715 12.0517 58.4232 11.7783 58.2232 11.555C58.0232 11.3317 57.7715 11.19 57.4682 11.13C57.3449 11.1033 57.2065 11.0883 57.0532 11.085C56.8999 11.0817 56.7782 11.08 56.6882 11.08H55.7382V15.72ZM63.4598 17V9.8H66.3398C66.8531 9.8 67.2681 9.90333 67.5848 10.11C67.9014 10.3133 68.1331 10.57 68.2798 10.88C68.4264 11.19 68.4998 11.5033 68.4998 11.82C68.4998 12.2233 68.4081 12.5583 68.2248 12.825C68.0448 13.0917 67.7964 13.27 67.4798 13.36V13.11C67.9298 13.2033 68.2664 13.4117 68.4898 13.735C68.7164 14.0583 68.8298 14.42 68.8298 14.82C68.8298 15.25 68.7498 15.6283 68.5898 15.955C68.4331 16.2817 68.1931 16.5383 67.8698 16.725C67.5464 16.9083 67.1398 17 66.6498 17H63.4598ZM64.8398 15.72H66.5098C66.6931 15.72 66.8564 15.6817 66.9998 15.605C67.1431 15.525 67.2548 15.415 67.3348 15.275C67.4181 15.1317 67.4598 14.9633 67.4598 14.77C67.4598 14.6 67.4248 14.4483 67.3548 14.315C67.2848 14.1817 67.1781 14.0767 67.0348 14C66.8948 13.92 66.7198 13.88 66.5098 13.88H64.8398V15.72ZM64.8398 12.61H66.3198C66.4731 12.61 66.6098 12.5833 66.7298 12.53C66.8498 12.4767 66.9448 12.395 67.0148 12.285C67.0848 12.1717 67.1198 12.0267 67.1198 11.85C67.1198 11.63 67.0514 11.445 66.9148 11.295C66.7781 11.145 66.5798 11.07 66.3198 11.07H64.8398V12.61ZM71.2842 17V14.07L68.8242 9.8H70.4142L71.9742 12.51L73.5342 9.8H75.1242L72.6642 14.07V17H71.2842ZM76.9246 17L79.1246 9.8H81.1546L83.3546 17H81.9546L79.9946 10.65H80.2546L78.3246 17H76.9246ZM78.2446 15.5V14.23H82.0446V15.5H78.2446ZM84.3508 17V9.8H85.7108V17H84.3508Z" fill="white"/>
</g>
<defs>
<filter id="filter0_b_209_4" x="8.19023" y="5.64999" width="81.5206" height="15.5" filterUnits="userSpaceOnUse" color-interpolation-filters="sRGB">
<feFlood flood-opacity="0" result="BackgroundImageFix"/>
<feGaussianBlur in="BackgroundImageFix" stdDeviation="2"/>
<feComposite in2="SourceAlpha" operator="in" result="effect1_backgroundBlur_209_4"/>
<feBlend mode="normal" in="SourceGraphic" in2="effect1_backgroundBlur_209_4" result="shape"/>
</filter>
</defs>
</svg>
