<svg width="25" height="24" viewBox="0 0 25 24" fill="none" xmlns="http://www.w3.org/2000/svg">
<path d="M16.8668 10C16.8668 10 16.6668 11 13.6668 15C10.7668 18.8 14.9668 21.6 15.4668 22H15.5668C16.1668 21.5 23.7668 16.7 16.8668 10Z" stroke="white" stroke-width="1.5" stroke-miterlimit="10" stroke-linecap="round" stroke-linejoin="round"/>
<path d="M14.4668 7.80001C14.4668 5.50001 13.5668 3.40001 12.6668 2.20001C12.3668 1.90001 11.8668 2.00001 11.7668 2.40001C11.3668 3.90001 10.1668 7.10001 7.2668 10.9C3.5668 15.7 6.9668 20.9 10.4668 21.9C12.3668 22.4 9.9668 20.9 9.6668 17.8C9.3668 13.9 14.4668 11 14.4668 7.80001Z" stroke="white" stroke-width="1.5" stroke-miterlimit="10" stroke-linecap="round" stroke-linejoin="round"/>
</svg>
