<svg width="21" height="15" viewBox="0 0 21 15" fill="none" xmlns="http://www.w3.org/2000/svg">
<path d="M0 12.3923C0 11.8769 0.133017 11.4169 0.39905 11.0125C0.665067 10.608 1.02033 10.2933 1.46485 10.0684C2.4152 9.60354 3.37082 9.24517 4.3317 8.99325C5.2926 8.74133 6.34869 8.61538 7.49998 8.61538C8.65126 8.61538 9.70734 8.74133 10.6682 8.99325C11.6291 9.24517 12.5848 9.60354 13.5351 10.0684C13.9796 10.2933 14.3349 10.608 14.6009 11.0125C14.8669 11.4169 14.9999 11.8769 14.9999 12.3923V13.0961C14.9999 13.4986 14.8522 13.8525 14.5567 14.1576C14.2612 14.4627 13.9025 14.6153 13.4808 14.6153H1.5192C1.09742 14.6153 0.738775 14.4675 0.443275 14.172C0.147775 13.8765 2.49863e-05 13.5179 2.49863e-05 13.0961L0 12.3923ZM18.8846 14.6153H16.6134C16.739 14.3858 16.8349 14.1416 16.9009 13.8826C16.9669 13.6236 16.9999 13.3614 16.9999 13.0961V12.2692C16.9999 11.6128 16.8392 10.9872 16.5178 10.3925C16.1963 9.7977 15.7404 9.28739 15.15 8.86153C15.8205 8.96153 16.457 9.11633 17.0596 9.32595C17.6621 9.53557 18.2371 9.78332 18.7845 10.0692C19.3012 10.3448 19.7002 10.6697 19.9816 11.0438C20.263 11.4179 20.4038 11.8264 20.4038 12.2692V13.0961C20.4038 13.5179 20.256 13.8765 19.9605 14.172C19.665 14.4675 19.3063 14.6153 18.8846 14.6153ZM7.49998 6.99993C6.53749 6.99993 5.71354 6.65723 5.02812 5.97183C4.34271 5.28641 4 4.46246 4 3.49998C4 2.53748 4.34271 1.71353 5.02812 1.02813C5.71354 0.342708 6.53749 0 7.49998 0C8.46246 0 9.28641 0.342708 9.97182 1.02813C10.6572 1.71353 10.9999 2.53748 10.9999 3.49998C10.9999 4.46246 10.6572 5.28641 9.97182 5.97183C9.28641 6.65723 8.46246 6.99993 7.49998 6.99993ZM16.1345 3.49998C16.1345 4.46246 15.7918 5.28641 15.1064 5.97183C14.421 6.65723 13.597 6.99993 12.6345 6.99993C12.5217 6.99993 12.3781 6.98711 12.2038 6.96148C12.0294 6.93584 11.8858 6.90764 11.773 6.87688C12.1674 6.40276 12.4705 5.87678 12.6823 5.29895C12.894 4.72112 12.9999 4.12106 12.9999 3.49878C12.9999 2.87651 12.8919 2.27883 12.6759 1.70575C12.4599 1.13268 12.1589 0.605126 11.773 0.123076C11.9166 0.0717925 12.0602 0.0384592 12.2038 0.0230759C12.3474 0.00769253 12.4909 0 12.6345 0C13.597 0 14.421 0.342708 15.1064 1.02813C15.7918 1.71353 16.1345 2.53748 16.1345 3.49998ZM1.49997 13.1153H13.5V12.3923C13.5 12.1833 13.4477 11.9974 13.3433 11.8346C13.2388 11.6717 13.073 11.5294 12.8461 11.4076C12.023 10.9833 11.1756 10.6618 10.3038 10.4432C9.43203 10.2246 8.49741 10.1153 7.49998 10.1153C6.50254 10.1153 5.56792 10.2246 4.69612 10.4432C3.82434 10.6618 2.97691 10.9833 2.15383 11.4076C1.92691 11.5294 1.7612 11.6717 1.6567 11.8346C1.55222 11.9974 1.49997 12.1833 1.49997 12.3923V13.1153ZM7.49998 5.49998C8.04998 5.49998 8.52081 5.30414 8.91248 4.91248C9.30414 4.52081 9.49998 4.04998 9.49998 3.49998C9.49998 2.94998 9.30414 2.47914 8.91248 2.08748C8.52081 1.69581 8.04998 1.49998 7.49998 1.49998C6.94998 1.49998 6.47914 1.69581 6.08748 2.08748C5.69581 2.47914 5.49998 2.94998 5.49998 3.49998C5.49998 4.04998 5.69581 4.52081 6.08748 4.91248C6.47914 5.30414 6.94998 5.49998 7.49998 5.49998Z" fill="currentColor"/>
</svg>
