<svg width="20" height="21" viewBox="0 0 20 21" fill="none" xmlns="http://www.w3.org/2000/svg">
    <path fill-rule="evenodd" clip-rule="evenodd"
          d="M2.7979 3.28469C2.10711 4.02925 1.52048 4.85278 1.10382 5.79476C1.58085 6.17171 2.05788 6.54979 2.53441 6.92748C3.12037 7.3919 3.70558 7.85572 4.28912 8.31611C4.33847 8.3556 4.39329 8.38944 4.44811 8.42329C4.80996 7.40233 5.36368 6.51112 6.14219 5.76656C8.40645 3.60056 11.8878 3.578 14.0205 5.58606C14.1561 5.71564 14.219 5.64705 14.2923 5.56707L14.2923 5.56706C14.302 5.55652 14.3118 5.54579 14.322 5.53529C14.6407 5.20954 14.9578 4.88299 15.2749 4.55655C15.8032 4.01249 16.3313 3.46871 16.8659 2.92933C17.0358 2.76011 16.9975 2.68114 16.8439 2.54577C14.4207 0.402334 11.6192 -0.359149 8.48868 0.154147C6.25184 0.520787 4.3604 1.60378 2.7979 3.28469ZM5.67601 14.7297C5.11132 14.0866 4.73303 13.3364 4.42601 12.5355C3.86954 12.9782 3.31444 13.4225 2.75933 13.8667C2.20424 14.3108 1.64915 14.755 1.09268 15.1978C1.73413 16.5685 2.63873 17.7248 3.79553 18.6612C6.5861 20.9287 9.73303 21.4928 13.1376 20.6015C14.585 20.2236 15.8679 19.5185 16.9589 18.4525C15.9721 17.6628 14.9852 16.8731 13.9984 16.0778C13.9488 16.0369 13.9011 15.992 13.8531 15.9466L13.8531 15.9466C13.8215 15.9168 13.7898 15.8869 13.7572 15.8578C12.9129 16.388 12.0137 16.7321 11.0214 16.8392C8.88873 17.0649 7.11242 16.3598 5.67601 14.7297ZM16.9645 18.4522C16.471 18.0574 15.9775 17.6611 15.4841 17.2648L15.4821 17.2632C14.9894 16.8675 14.4966 16.4718 14.0039 16.0775C13.9342 16.0237 13.8713 15.9627 13.8099 15.9031L13.8099 15.9031C13.7941 15.8878 13.7784 15.8726 13.7627 15.8576C14.4316 15.333 14.9908 14.7125 15.3581 13.9228C15.5061 13.6069 15.6048 13.2798 15.7035 12.947C15.7693 12.7157 15.7473 12.6255 15.4732 12.6311C14.2984 12.6432 13.1236 12.6409 11.9488 12.6386L11.9473 12.6386C11.4779 12.6377 11.0084 12.6368 10.539 12.6368C10.367 12.6368 10.2794 12.6368 10.2346 12.5929C10.1881 12.5473 10.1881 12.4543 10.1881 12.2645C10.1881 11.9786 10.1885 11.6923 10.1888 11.4059V11.4054C10.1898 10.5448 10.1909 9.68268 10.1827 8.82371C10.1827 8.60372 10.221 8.51912 10.4623 8.51912C12.7361 8.52758 15.01 8.52652 17.2839 8.52546C18.0418 8.52511 18.7997 8.52476 19.5577 8.52476C19.7221 8.52476 19.8263 8.53604 19.8537 8.7391C20.232 11.4692 19.9305 14.0751 18.5379 16.4837C18.1158 17.2226 17.6059 17.8938 16.9645 18.4522ZM2.75943 13.8665C3.31453 13.4223 3.86963 12.9781 4.4261 12.5353C4.02588 11.1646 4.00395 9.79395 4.44803 8.42892L4.44802 8.42891C4.3932 8.39507 4.33838 8.36123 4.28904 8.32175C3.75727 7.90154 3.2255 7.47993 2.69373 7.05831C2.1619 6.63666 1.63008 6.215 1.09825 5.79475C1.08054 5.82917 1.06141 5.86359 1.04214 5.89827C1.00773 5.96021 0.972858 6.02298 0.944743 6.08806C0.116892 7.93254 -0.162714 9.86728 0.0894794 11.881C0.237506 13.0429 0.550006 14.1598 1.09277 15.1977C1.64924 14.7549 2.20433 14.3107 2.75943 13.8665Z"
          fill="currentColor"/>
</svg>
