<svg height="64px" width="64px" version="1.1" id="Layer_1" xmlns="http://www.w3.org/2000/svg" xmlns:xlink="http://www.w3.org/1999/xlink" viewBox="0 0 512.00 512.00" xml:space="preserve" fill="#000000"><g id="SVGRepo_bgCarrier" stroke-width="0"></g><g id="SVGRepo_tracerCarrier" stroke-linecap="round" stroke-linejoin="round"></g><g id="SVGRepo_iconCarrier"> <path style="fill:#E0FE10;" d="M256,504.396c-66.349,0-128.727-25.838-175.642-72.754C33.441,384.727,7.604,322.349,7.604,255.999 S33.441,127.273,80.358,80.358S189.651,7.604,256,7.604c66.348,0,128.726,25.838,175.643,72.754 c46.915,46.915,72.754,109.293,72.754,175.642s-25.838,128.728-72.754,175.643C384.726,478.558,322.349,504.396,256,504.396z"></path> <path style="fill:#E0FE10;" d="M116.943,253.646c0-66.349,25.837-128.726,72.754-175.642 c32.444-32.443,72.282-54.798,115.713-65.509c-16.092-3.23-32.623-4.891-49.41-4.891c-66.349,0-128.727,25.838-175.642,72.754 C33.441,127.273,7.604,189.65,7.604,255.999s25.837,128.728,72.754,175.642c46.915,46.916,109.293,72.755,175.642,72.755 c20.468,0,40.554-2.467,59.929-7.245c-47.512-9.538-91.187-32.817-126.233-67.862C142.781,382.374,116.943,319.995,116.943,253.646z "></path> <circle style="fill:#FFFFFF;" cx="256" cy="256" r="217.189"></circle> <path style="fill:#FFFFFF;" d="M239.39,39.438c-112.189,8.484-200.578,102.2-200.578,216.561c0,117.486,93.29,213.17,209.833,217.05 c-21.431-11.432-41.286-26.101-58.947-43.761c-46.916-46.915-72.754-109.293-72.754-175.643c0-66.349,25.837-128.726,72.754-175.642 C204.788,62.912,221.481,50.007,239.39,39.438z"></path> <path style="fill:#E0FE10;" d="M427.908,196.355l-0.302-0.291l-0.326-0.262c-1.29-1.031-6.063-4.396-13.326-4.396 c-0.46,0-0.922,0.018-1.382,0.046c7.342-5.711,8.384-13.48,8.489-14.509l0.031-0.306l0.01-0.308 c0.359-10.774-1.268-38.299-24.078-61.108c-21.193-21.192-45.836-24.356-58.639-24.356c-0.421,0-0.828,0.003-1.226,0.009 l-0.421,0.007l-0.418,0.047c-4.696,0.525-10.973,3.392-15.279,9.641c0.569-8.492-3.766-14.165-4.387-14.928l-0.195-0.239 l-0.211-0.225c-7.365-7.873-27.976-26.184-60.234-26.184c-31.809,0-52.239,17.564-59.546,25.115l-0.291,0.302l-0.262,0.326 c-2.577,3.223-4.733,8.568-4.325,14.842c-5.72-7.47-13.585-8.524-14.62-8.63l-0.306-0.031l-0.308-0.01 c-0.795-0.026-1.639-0.042-2.527-0.042c-12.871,0-37.596,3.134-58.582,24.119c-22.49,22.492-24.518,49.358-24.346,59.864 l0.007,0.421l0.047,0.418c0.555,4.954,3.72,11.661,10.704,15.963c-0.875-0.098-1.75-0.163-2.624-0.163 c-7.589,0-12.504,3.682-13.412,4.42l-0.239,0.195l-0.225,0.211c-7.873,7.364-26.184,27.975-26.184,60.236 c0,31.808,17.563,52.238,25.114,59.546l0.301,0.291l0.327,0.262c1.29,1.031,6.063,4.396,13.326,4.396l0,0 c0.274,0,0.547-0.011,0.821-0.021c-6.808,5.657-7.794,13.035-7.897,14.036l-0.031,0.306l-0.01,0.308 c-0.359,10.774,1.268,38.299,24.078,61.107c21.192,21.192,45.836,24.357,58.639,24.357c0.002,0,0.003,0,0.005,0 c0.42,0,0.825-0.003,1.222-0.009l0.421-0.007l0.418-0.047c4.901-0.548,11.517-3.657,15.823-10.488 c-0.931,8.961,3.675,14.986,4.316,15.774l0.195,0.24l0.211,0.225c7.365,7.873,27.979,26.184,60.236,26.184 c31.807,0,52.238-17.564,59.546-25.115l0.291-0.301l0.262-0.327c2.488-3.112,4.595-8.195,4.372-14.186 c5.666,6.881,13.099,7.872,14.103,7.975l0.306,0.031l0.308,0.01c0.794,0.026,1.636,0.042,2.521,0.042c0.001,0,0,0,0.001,0 c12.873,0,37.6-3.135,58.585-24.12c22.493-22.494,24.519-49.359,24.347-59.864l-0.007-0.42l-0.047-0.418 c-0.532-4.756-3.472-11.128-9.886-15.436c0.589,0.045,1.179,0.084,1.768,0.084h0.001c7.587,0,12.504-3.682,13.412-4.42l0.239-0.195 l0.225-0.211c7.873-7.365,26.184-27.977,26.184-60.235C453.024,224.091,435.461,203.662,427.908,196.355z"></path> <g> <path style="fill:#E0FE10;" d="M124.734,191.703c9.043-35.298,25.808-68.162,49.444-96.545c-0.331-0.067-0.534-0.091-0.534-0.091 c-12.034-0.401-36.153,2.1-56.186,22.134c-19.862,19.862-22.6,43.318-22.406,55.06c0.049,0.434,0.959,7.534,9.218,10.958 L124.734,191.703z"></path> <path style="fill:#E0FE10;" d="M116.944,253.784c0-15.365,1.403-30.512,4.115-45.308l-20.901-8.667 c-8.287-3.197-13.912,1.375-13.912,1.375c-8.792,8.224-24.079,27.049-24.079,55.38c0,28.088,14.65,46.61,23.09,54.777 c0.341,0.273,6.006,4.649,14.266,1.231l22.34-9.246C118.614,287.191,116.944,270.616,116.944,253.784z"></path> <path style="fill:#E0FE10;" d="M172.267,416.962c0.219-0.024,2.137-0.272,4.423-1.569c-24.331-28.311-41.69-61.263-51.222-96.741 l-21.528,8.908c-8.12,3.599-8.865,10.81-8.865,10.81c-0.401,12.033,2.1,36.153,22.134,56.186 C137.068,414.417,160.525,417.154,172.267,416.962z"></path> </g> <path d="M37.142,138.02c1.203,0.699,2.518,1.032,3.816,1.032c2.619,0,5.169-1.355,6.58-3.782c1.574-2.705,3.223-5.418,4.904-8.062 c2.253-3.544,1.204-8.245-2.34-10.497c-3.545-2.255-8.244-1.204-10.495,2.34c-1.787,2.812-3.541,5.697-5.214,8.573 C32.28,131.253,33.512,135.908,37.142,138.02z"></path> <path d="M386.267,458.613C347.594,483.59,302.548,496.792,256,496.792c-64.318,0-124.786-25.046-170.266-70.527 C40.254,380.787,15.208,320.318,15.208,256c0-35.252,7.377-69.134,21.925-100.707c1.757-3.814,0.09-8.331-3.724-10.088 c-3.816-1.759-8.332-0.09-10.088,3.724C7.846,182.51,0,218.534,0,256c0,68.381,26.629,132.668,74.981,181.02 C123.332,485.371,187.619,512,256,512c49.483,0,97.381-14.044,138.519-40.612c3.527-2.278,4.541-6.986,2.262-10.513 C394.502,457.347,389.795,456.335,386.267,458.613z"></path> <path d="M437.02,74.981C388.667,26.629,324.379,0,256,0S123.332,26.629,74.981,74.981c-7.925,7.925-15.383,16.411-22.167,25.222 c-2.562,3.327-1.942,8.102,1.387,10.664c3.326,2.562,8.102,1.942,10.664-1.386c6.384-8.293,13.406-16.282,20.869-23.745 C131.214,40.255,191.682,15.208,256,15.208c64.317,0,124.786,25.046,170.266,70.527c45.48,45.478,70.526,105.946,70.526,170.265 s-25.046,124.787-70.527,170.266c-6.684,6.685-13.804,13.029-21.161,18.854c-3.293,2.607-3.849,7.389-1.242,10.681 c1.501,1.896,3.723,2.884,5.967,2.884c1.654,0,3.318-0.536,4.714-1.642c7.816-6.188,15.377-12.924,22.476-20.022 C485.371,388.668,512,324.381,512,256S485.371,123.332,437.02,74.981z"></path> <path d="M97.048,414.951c42.457,42.458,98.907,65.84,158.951,65.84s116.495-23.383,158.952-65.84 c42.458-42.457,65.84-98.908,65.84-158.951s-23.383-116.494-65.84-158.951c-42.457-42.458-98.908-65.84-158.952-65.84 S139.505,54.589,97.048,97.048c-42.457,42.457-65.84,98.908-65.84,158.951S54.59,372.494,97.048,414.951z M256,46.416 c115.565,0,209.584,94.018,209.584,209.584S371.564,465.583,256,465.583S46.416,371.565,46.416,256S140.435,46.416,256,46.416z"></path> <path d="M78.808,321.563l0.301,0.291c0.168,0.162,0.343,0.316,0.525,0.462l0.338,0.271c1.068,0.854,3.021,2.236,5.77,3.464 c-1.776,3.958-2.233,7.219-2.336,8.223l-0.031,0.307c-0.018,0.175-0.029,0.351-0.035,0.526l-0.01,0.311 c-0.392,11.765,1.384,41.822,26.301,66.737c23.13,23.13,50.036,26.584,64.02,26.584c0.465,0,0.916-0.003,1.346-0.011l0.421-0.007 c0.245-0.004,0.49-0.02,0.733-0.048l0.404-0.046c2.976-0.333,6.469-1.352,9.942-3.228c1.388,3.075,2.903,5.076,3.446,5.745 l0.195,0.241c0.116,0.142,0.236,0.28,0.362,0.414l0.203,0.217c8.043,8.597,30.555,28.593,65.788,28.593 c34.714,0,57.029-19.183,65.014-27.433l0.291-0.301c0.167-0.174,0.327-0.356,0.479-0.544l0.255-0.32 c1.382-1.728,2.548-3.67,3.477-5.758c3.979,1.796,7.264,2.256,8.277,2.36l0.306,0.031c0.171,0.018,0.344,0.029,0.515,0.035 l0.331,0.012c0.872,0.028,1.796,0.046,2.768,0.046c14.047,0,41.038-3.423,63.963-26.347c24.548-24.549,26.761-53.89,26.572-65.367 l-0.007-0.42c-0.004-0.239-0.019-0.48-0.046-0.717l-0.048-0.421c-0.372-3.329-1.415-6.604-3.022-9.65 c2.819-1.293,4.723-2.7,5.561-3.381l0.238-0.195c0.139-0.113,0.274-0.23,0.402-0.352l0.217-0.204 c8.597-8.043,28.593-30.553,28.593-65.787c0-34.72-19.183-57.031-27.431-65.011c-0.004-0.004-0.008-0.007-0.011-0.01l-0.302-0.291 c-0.165-0.159-0.338-0.311-0.516-0.454l-0.342-0.275c-1.086-0.868-3.09-2.283-5.915-3.528c1.917-4.115,2.403-7.546,2.513-8.607 l0.031-0.306c0.019-0.179,0.03-0.359,0.036-0.539l0.01-0.3c0.391-11.766-1.388-41.824-26.302-66.738 c-23.129-23.129-50.035-26.582-64.014-26.582c-0.466,0-0.919,0.003-1.35,0.011l-0.421,0.007c-0.239,0.004-0.478,0.019-0.715,0.046 l-0.425,0.048c-3.299,0.369-6.551,1.402-9.579,2.989c-1.364-2.955-2.82-4.876-3.342-5.517l-0.194-0.238 c-0.113-0.139-0.231-0.275-0.354-0.405l-0.203-0.216c-8.042-8.598-30.551-28.594-65.788-28.594 c-34.719,0-57.03,19.183-65.017,27.437l-0.292,0.302c-0.162,0.168-0.317,0.345-0.463,0.527l-0.269,0.335 c-1.424,1.781-2.616,3.782-3.554,5.931c-4.144-1.94-7.604-2.426-8.669-2.535l-0.306-0.031c-0.17-0.018-0.343-0.029-0.514-0.035 l-0.331-0.012c-0.872-0.027-1.799-0.046-2.772-0.046c-14.047,0-41.035,3.423-63.958,26.345 c-24.547,24.547-26.761,53.89-26.573,65.376l0.007,0.42c0.004,0.236,0.019,0.471,0.046,0.706l0.047,0.425 c0.336,2.995,1.36,6.502,3.244,9.979c-2.964,1.327-4.962,2.801-5.833,3.508l-0.238,0.195c-0.13,0.105-0.255,0.216-0.379,0.331 l-0.229,0.214c-8.597,8.043-28.593,30.553-28.593,65.789C51.371,291.264,70.555,313.577,78.808,321.563z M174.852,413.518 l-0.114,0.007c-0.353,0.006-0.714,0.009-1.093,0.009c-11.627,0-34.007-2.875-53.262-22.131 c-20.705-20.704-22.181-45.693-21.855-55.474l0.006-0.09c0.021-0.2,0.56-4.712,4.6-8.439c0.01,0.017,0.019,0.03,0.019,0.03 l126.817-52.596c10.667-4.413,6.23,6.23,6.23,6.23l0,0l-52.807,127.719C180.636,411.839,177.237,413.251,174.852,413.518z M310.645,422.524l-0.071,0.082c-6.636,6.855-25.187,22.799-54.083,22.799c-29.278,0-47.994-16.626-54.69-23.783l-0.022-0.024 l-0.026-0.032c-0.118-0.146-2.566-3.249-2.726-8.109l52.629-127.958c4.421-10.664,8.811,0,8.811,0l0,0l52.48,126.669 c0.04,0.096,0.204,0.126,0.463,0.102c-0.039,0.36-0.06,0.725-0.046,1.094C313.514,417.421,312.061,420.753,310.645,422.524z M391.412,391.64c-20.35,20.349-44.609,22.21-55.463,21.857l-0.1-0.007c-0.21-0.022-5.195-0.604-9.017-5.246 c-0.241-0.293-0.505-0.56-0.781-0.808c0.572-0.253,0.91-0.407,0.91-0.407l-51.953-125.125c-4.413-10.667,6.23-6.23,6.23-6.23l0,0 l127.169,52.837c0.112,0.047,0.228,0.076,0.347,0.099c3.078,2.772,4.508,6.196,4.769,8.544l0.008,0.122 C413.688,346.816,411.846,371.205,391.412,391.64z M422.631,201.828c6.86,6.641,22.79,25.184,22.79,54.073 c0,29.279-16.626,47.994-23.783,54.689l-0.057,0.05c-0.13,0.105-3.106,2.471-7.892,2.697c-0.022-0.009-0.042-0.021-0.065-0.029 L285.68,260.583c-10.664-4.421,0-8.811,0-8.811l0,0l126.66-52.409c0.206-0.085,0.392-0.199,0.571-0.323 c0.04-0.002,0.078,0.005,0.118,0.002c0.309-0.019,0.616-0.031,0.926-0.031c4.912,0,8.009,2.275,8.565,2.72L422.631,201.828z M337.162,98.483l0.133-0.008c0.355-0.006,0.718-0.009,1.093-0.009c11.627,0,34.007,2.875,53.26,22.128 c20.703,20.704,22.181,45.696,21.856,55.489l-0.005,0.071c-0.021,0.198-0.53,4.44-4.241,8.098l-127.175,52.598 c-10.667,4.413-6.23-6.23-6.23-6.23l0,0l52.618-127.233C331.267,100.203,334.786,98.75,337.162,98.483z M201.85,89.491l0.084-0.096 c6.633-6.856,25.182-22.799,54.082-22.799c29.282,0,47.995,16.625,54.689,23.783l0.048,0.054c0.12,0.149,2.803,3.554,2.729,8.823 l-52.618,126.932c-4.421,10.664-8.811,0-8.811,0l0,0L199.158,97.704C199.237,94.073,200.544,91.126,201.85,89.491z M120.626,120.359 c20.351-20.351,44.612-22.2,55.463-21.856l0.105,0.008c0.193,0.02,4.153,0.495,7.715,3.868 c9.195,22.025,53.137,127.399,53.137,127.399c4.413,10.667-6.23,6.23-6.23,6.23l0,0l-128.283-53.315 c-2.564-2.616-3.777-5.658-4.021-7.847l-0.008-0.125C98.35,165.183,100.193,140.792,120.626,120.359z M90.35,201.868l0.066-0.06 c0.137-0.111,3.41-2.72,8.62-2.72c0.421,0,0.919,0.033,1.478,0.089l125.825,52.363c10.664,4.421,0,8.811,0,8.811l0,0L97.773,313.43 c-4.752-0.083-7.748-2.276-8.297-2.716l-0.097-0.085c-6.855-6.634-22.799-25.183-22.799-54.082 C66.579,227.266,83.206,208.551,90.35,201.868z"></path> </g></svg>