<svg width="30" height="30" viewBox="0 0 30 30" fill="none" xmlns="http://www.w3.org/2000/svg">
<path d="M15.8487 11.6362C15.8487 11.6362 15.8369 12.3708 15.8899 12.6039C16.0193 13.2161 16.7488 13.1053 16.9488 12.9129C18.9431 10.9716 23.2259 6.75082 23.2259 6.75082C23.2259 6.75082 23.8318 5.99294 22.8141 5.15928C21.914 4.42472 19.1196 3.14216 17.0724 2.96144C15.7134 2.83901 15.8487 4.03412 15.8487 4.03412V11.6362Z" fill="#B2CA0D"/>
<path d="M23.9261 7.89358L18.3785 13.1404C18.3785 13.1404 17.8373 13.6359 17.6961 13.84C17.3373 14.3588 17.9255 14.8019 18.202 14.8136C20.9964 14.9068 27.0382 15.0584 27.0382 15.0584C27.0382 15.0584 28.0089 14.971 27.9148 13.6651C27.8324 12.5166 26.8382 9.62503 25.5557 8.03349C24.7027 6.97247 23.9261 7.89358 23.9261 7.89358Z" fill="#B2CA0D"/>
<path d="M26.6206 15.9154L18.9492 15.8688C18.9492 15.8688 18.208 15.8513 17.9727 15.9037C17.355 16.032 17.4609 16.7549 17.655 16.9473C19.5964 18.9352 23.838 23.2085 23.838 23.2085C23.838 23.2085 24.5969 23.8148 25.444 22.8121C26.1911 21.9259 27.503 19.1684 27.6972 17.1397C27.8207 15.793 26.6206 15.9154 26.6206 15.9154Z" fill="#B2CA0D"/>
<path d="M12.9192 16.7258C13.2368 16.1836 12.625 15.7813 12.3544 15.7872C9.56 15.8804 3.52412 16.1311 3.52412 16.1311C3.52412 16.1311 2.55932 16.2827 2.74169 17.5769C2.90053 18.7196 4.08888 21.5354 5.47725 23.0395C6.39499 24.0364 7.11271 23.0686 7.11271 23.0686L12.2897 17.4662C12.2897 17.4662 12.7956 16.9356 12.9192 16.7258Z" fill="#B2CA0D"/>
<path d="M3.88298 15.2449L11.5367 14.7843C11.5367 14.7843 12.272 14.7494 12.5132 14.6852C13.1251 14.5162 12.9662 13.8049 12.7603 13.6242C10.6895 11.7703 6.17143 7.78857 6.17143 7.78857C6.17143 7.78857 5.37136 7.23474 4.59481 8.28993C3.90651 9.2227 2.78875 12.0618 2.72992 14.0964C2.68874 15.4489 3.88298 15.2449 3.88298 15.2449Z" fill="#B2CA0D"/>
<path d="M22.9259 23.5408L17.4489 18.224C17.4489 18.224 16.9312 17.7052 16.7253 17.5711C16.19 17.2329 15.7605 17.8276 15.7605 18.1016C15.7605 20.8707 15.8134 26.8638 15.8134 26.8638C15.8134 26.8638 15.937 27.8199 17.2489 27.6858C18.4078 27.5634 21.2846 26.4849 22.8494 25.1615C23.8789 24.2812 22.9259 23.5408 22.9259 23.5408Z" fill="#B2CA0D"/>
<path d="M14.7132 18.877C14.7132 18.877 14.7073 18.1424 14.6485 17.9092C14.5014 17.3029 13.7778 17.4312 13.5837 17.6294C11.6423 19.6232 7.47721 23.9605 7.47721 23.9605C7.47721 23.9605 6.88892 24.7301 7.9302 25.5404C8.84793 26.2517 11.6776 27.4584 13.7249 27.5809C15.0838 27.6625 14.9191 26.4732 14.9191 26.4732L14.7132 18.877Z" fill="#B2CA0D"/>
<path d="M7.28328 7.29319L12.9427 12.4234C12.9427 12.4234 13.478 12.9248 13.6898 13.0472C14.2369 13.362 14.6428 12.7557 14.6311 12.4817C14.5369 9.71256 14.2781 3.73117 14.2781 3.73117C14.2781 3.73117 14.1251 2.77508 12.8191 2.96164C11.6661 3.11904 8.82461 4.30249 7.3127 5.67833C6.30083 6.58195 7.28328 7.29319 7.28328 7.29319Z" fill="#B2CA0D"/>
<path d="M15.3782 16.7141C16.1352 16.7141 16.7489 16.106 16.7489 15.3558C16.7489 14.6056 16.1352 13.9974 15.3782 13.9974C14.6211 13.9974 14.0074 14.6056 14.0074 15.3558C14.0074 16.106 14.6211 16.7141 15.3782 16.7141Z" fill="#B2CA0D"/>
<path d="M30 15C30 23.2843 23.2843 30 15 30C6.71573 30 0 23.2843 0 15C0 6.71573 6.71573 0 15 0C23.2843 0 30 6.71573 30 15ZM1.09579 15C1.09579 22.6791 7.32092 28.9042 15 28.9042C22.6791 28.9042 28.9042 22.6791 28.9042 15C28.9042 7.32092 22.6791 1.09579 15 1.09579C7.32092 1.09579 1.09579 7.32092 1.09579 15Z" fill="#B2CA0D"/>
</svg>
