<svg width="23" height="23" viewBox="0 0 23 23" fill="none" xmlns="http://www.w3.org/2000/svg">
<path fillRule="evenodd" clipRule="evenodd" d="M6.52783 8.7649C6.52783 8.2714 6.94085 7.87134 7.45034 7.87134H14.8304C15.3399 7.87134 15.7529 8.2714 15.7529 8.7649C15.7529 9.25841 15.3399 9.65847 14.8304 9.65847H7.45034C6.94085 9.65847 6.52783 9.25841 6.52783 8.7649Z" fill="currentColor"/>
<path fillRule="evenodd" clipRule="evenodd" d="M6.52783 12.3391C6.52783 11.8456 6.94085 11.4456 7.45034 11.4456H11.1404C11.6499 11.4456 12.0629 11.8456 12.0629 12.3391C12.0629 12.8326 11.6499 13.2327 11.1404 13.2327H7.45034C6.94085 13.2327 6.52783 12.8326 6.52783 12.3391Z" fill="currentColor"/>
<path fillRule="evenodd" clipRule="evenodd" d="M6.26943 16.3276C6.60101 16.0599 7.01896 15.9134 7.45058 15.9134H17.5982C18.1077 15.9134 18.5207 15.5133 18.5207 15.0198V6.08414C18.5207 5.59063 18.1077 5.19057 17.5982 5.19057H4.68305C4.17357 5.19057 3.76055 5.59063 3.76055 6.08414V18.3527L6.26943 16.3276ZM7.45058 17.7005H17.5982C19.1266 17.7005 20.3657 16.5003 20.3657 15.0198V6.08414C20.3657 4.60363 19.1266 3.40344 17.5982 3.40344H4.68305C3.15459 3.40344 1.91553 4.60363 1.91553 6.08414V18.3527C1.91553 19.8679 3.73998 20.6956 4.94169 19.7256L7.45058 17.7005Z" fill="currentColor"/>
</svg>