<svg width="20" height="18" viewBox="0 0 20 18" fill="none" xmlns="http://www.w3.org/2000/svg">
<path fill-rule="evenodd" clip-rule="evenodd" d="M5.26943 13.3276C5.60101 13.0599 6.01896 12.9134 6.45058 12.9134H16.5982C17.1077 12.9134 17.5207 12.5133 17.5207 12.0198V3.08414C17.5207 2.59063 17.1077 2.19057 16.5982 2.19057H3.68305C3.17357 2.19057 2.76055 2.59063 2.76055 3.08414V15.3527L5.26943 13.3276ZM6.45058 14.7005H16.5982C18.1266 14.7005 19.3657 13.5003 19.3657 12.0198V3.08414C19.3657 1.60363 18.1266 0.403442 16.5982 0.403442H3.68305C2.15459 0.403442 0.915527 1.60363 0.915527 3.08414V15.3527C0.915527 16.8679 2.73998 17.6956 3.94169 16.7256L6.45058 14.7005Z" fill="#E0FE10"/>
</svg>
