<svg width="466" height="227" viewBox="0 0 466 227" fill="none" xmlns="http://www.w3.org/2000/svg">
<path d="M24.4035 84.349V81.2886C22.9447 81.2886 21.6886 82.3183 21.4025 83.7488L24.4035 84.349ZM56.6515 84.349L59.6529 84.947C59.832 84.0482 59.5988 83.1164 59.0175 82.4079C58.4362 81.6993 57.568 81.2886 56.6515 81.2886V84.349ZM42.5772 154.994L39.5758 154.396C39.3967 155.295 39.6299 156.227 40.2112 156.935C40.7925 157.644 41.6607 158.054 42.5772 158.054V154.994ZM85.7568 154.994L88.7565 155.601C88.9384 154.701 88.7068 153.767 88.1255 153.056C87.5443 152.346 86.6748 151.934 85.7568 151.934V154.994ZM80.7009 180V183.06C82.1573 183.06 83.412 182.034 83.7006 180.606L80.7009 180ZM5.27329 180L2.27233 179.4C2.09252 180.299 2.32528 181.231 2.90656 181.94C3.48785 182.649 4.35642 183.06 5.27329 183.06V180ZM24.4035 87.4094H56.6515V81.2886H24.4035V87.4094ZM53.6501 83.751L39.5758 154.396L45.5786 155.592L59.6529 84.947L53.6501 83.751ZM42.5772 158.054H85.7568V151.934H42.5772V158.054ZM82.7571 154.388L77.7012 179.394L83.7006 180.606L88.7565 155.601L82.7571 154.388ZM80.7009 176.94H5.27329V183.06H80.7009V176.94ZM8.27424 180.6L27.4044 84.9492L21.4025 83.7488L2.27233 179.4L8.27424 180.6ZM115.571 84.349V81.2886C114.112 81.2886 112.856 82.3183 112.57 83.7488L115.571 84.349ZM147.819 84.349L150.82 84.9492C151 84.0501 150.767 83.1178 150.186 82.4088C149.604 81.6997 148.736 81.2886 147.819 81.2886V84.349ZM128.689 180V183.06C130.148 183.06 131.404 182.031 131.69 180.6L128.689 180ZM96.4406 180L93.4397 179.4C93.2599 180.299 93.4926 181.231 94.0739 181.94C94.6552 182.649 95.5238 183.06 96.4406 183.06V180ZM115.571 87.4094H147.819V81.2886H115.571V87.4094ZM144.818 83.7488L125.688 179.4L131.69 180.6L150.82 84.9492L144.818 83.7488ZM128.689 176.94H96.4406V183.06H128.689V176.94ZM99.4416 180.6L118.572 84.9492L112.57 83.7488L93.4397 179.4L99.4416 180.6ZM277.851 84.349L280.853 84.9409C281.031 84.0428 280.796 83.1126 280.215 82.4055C279.634 81.6984 278.766 81.2886 277.851 81.2886V84.349ZM258.994 180V183.06C260.456 183.06 261.714 182.026 261.997 180.592L258.994 180ZM229.615 180L226.611 179.416C226.437 180.313 226.673 181.241 227.254 181.947C227.835 182.652 228.701 183.06 229.615 183.06V180ZM238.087 136.41L241.092 136.994C241.362 135.601 240.64 134.205 239.346 133.621C238.053 133.037 236.527 133.419 235.662 134.544L238.087 136.41ZM211.168 171.391V174.452C212.118 174.452 213.014 174.011 213.594 173.258L211.168 171.391ZM196.957 171.391L194.145 172.597C194.627 173.722 195.733 174.452 196.957 174.452V171.391ZM182.2 136.957L185.013 135.752C184.485 134.519 183.216 133.774 181.883 133.913C180.55 134.052 179.462 135.042 179.199 136.357L182.2 136.957ZM173.591 180V183.06C175.05 183.06 176.306 182.031 176.592 180.6L173.591 180ZM144.213 180L141.212 179.4C141.032 180.299 141.265 181.231 141.846 181.94C142.427 182.649 143.296 183.06 144.213 183.06V180ZM163.343 84.349V81.2886C161.884 81.2886 160.628 82.3183 160.342 83.7488L163.343 84.349ZM189.579 84.349L192.412 83.1914C191.941 82.0406 190.822 81.2886 189.579 81.2886V84.349ZM210.349 135.181L207.516 136.338C207.928 137.346 208.844 138.06 209.923 138.211C211.001 138.363 212.079 137.93 212.753 137.074L210.349 135.181ZM250.385 84.349V81.2886C249.448 81.2886 248.561 81.7186 247.981 82.4554L250.385 84.349ZM274.848 83.7571L255.991 179.408L261.997 180.592L280.853 84.9409L274.848 83.7571ZM258.994 176.94H229.615V183.06H258.994V176.94ZM232.62 180.584L241.092 136.994L235.083 135.827L226.611 179.416L232.62 180.584ZM235.662 134.544L208.743 169.525L213.594 173.258L240.513 138.277L235.662 134.544ZM211.168 168.331H196.957V174.452H211.168V168.331ZM199.77 170.186L185.013 135.752L179.387 138.163L194.145 172.597L199.77 170.186ZM179.199 136.357L170.59 179.4L176.592 180.6L185.201 137.557L179.199 136.357ZM173.591 176.94H144.213V183.06H173.591V176.94ZM147.214 180.6L166.344 84.9492L160.342 83.7488L141.212 179.4L147.214 180.6ZM163.343 87.4094H189.579V81.2886H163.343V87.4094ZM186.746 85.5066L207.516 136.338L213.182 134.023L192.412 83.1914L186.746 85.5066ZM212.753 137.074L252.79 86.2426L247.981 82.4554L207.944 133.287L212.753 137.074ZM250.385 87.4094H277.851V81.2886H250.385V87.4094ZM320.498 108.672V105.611C319.034 105.611 317.774 106.648 317.494 108.086L320.498 108.672ZM318.311 119.877L315.308 119.29C315.133 120.188 315.368 121.117 315.949 121.822C316.531 122.528 317.397 122.937 318.311 122.937V119.877ZM358.758 119.877L361.759 120.477C361.939 119.578 361.706 118.645 361.125 117.936C360.544 117.227 359.675 116.816 358.758 116.816V119.877ZM354.112 143.106V146.166C355.571 146.166 356.827 145.137 357.113 143.706L354.112 143.106ZM313.529 143.106V140.046C312.065 140.046 310.806 141.082 310.525 142.518L313.529 143.106ZM311.069 155.677L308.066 155.09C307.89 155.987 308.125 156.916 308.707 157.623C309.288 158.329 310.155 158.738 311.069 158.738V155.677ZM359.031 155.677L362.031 156.284C362.213 155.384 361.982 154.45 361.4 153.74C360.819 153.029 359.949 152.617 359.031 152.617V155.677ZM354.112 180V183.06C355.569 183.06 356.823 182.034 357.112 180.607L354.112 180ZM274.585 180L271.584 179.4C271.405 180.299 271.637 181.231 272.219 181.94C272.8 182.649 273.668 183.06 274.585 183.06V180ZM293.715 84.349V81.2886C292.257 81.2886 291.001 82.3183 290.715 83.7488L293.715 84.349ZM371.466 84.349L374.466 84.9557C374.648 84.0559 374.416 83.1219 373.835 82.4113C373.254 81.7007 372.384 81.2886 371.466 81.2886V84.349ZM366.547 108.672V111.732C368.003 111.732 369.258 110.706 369.547 109.278L366.547 108.672ZM317.494 108.086L315.308 119.29L321.315 120.463L323.501 109.258L317.494 108.086ZM318.311 122.937H358.758V116.816H318.311V122.937ZM355.757 119.276L351.111 142.506L357.113 143.706L361.759 120.477L355.757 119.276ZM354.112 140.046H313.529V146.166H354.112V140.046ZM310.525 142.518L308.066 155.09L314.073 156.265L316.532 143.694L310.525 142.518ZM311.069 158.738H359.031V152.617H311.069V158.738ZM356.032 155.071L351.113 179.393L357.112 180.607L362.031 156.284L356.032 155.071ZM354.112 176.94H274.585V183.06H354.112V176.94ZM277.586 180.6L296.716 84.9492L290.715 83.7488L271.584 179.4L277.586 180.6ZM293.715 87.4094H371.466V81.2886H293.715V87.4094ZM368.466 83.7423L363.547 108.065L369.547 109.278L374.466 84.9557L368.466 83.7423ZM366.547 105.611H320.498V111.732H366.547V105.611Z" fill="white"/>
<path d="M1.15326 220L5.09124 200.31H8.74793L5.42878 216.906H15.7238L15.1049 220H1.15326ZM17.9356 220L20.9172 204.979H24.4332L21.4516 220H17.9356ZM23.4769 202.504C22.8393 202.504 22.3236 202.317 21.9298 201.942C21.5548 201.548 21.3672 201.079 21.3672 200.535C21.3672 199.898 21.5829 199.363 22.0142 198.932C22.4643 198.501 23.0456 198.285 23.7582 198.285C24.377 198.285 24.8833 198.472 25.2771 198.847C25.6709 199.204 25.8678 199.644 25.8678 200.169C25.8678 200.863 25.6521 201.426 25.2208 201.857C24.7895 202.288 24.2082 202.504 23.4769 202.504ZM30.3701 220L26.9103 204.979H30.3701L33.3517 218.228H31.5796L39.8775 204.979H43.4217L33.9987 220H30.3701ZM50.0171 220.197C48.5169 220.197 47.2136 219.925 46.1073 219.381C45.0009 218.819 44.1383 218.05 43.5194 217.075C42.9194 216.081 42.6193 214.918 42.6193 213.587C42.6193 211.88 42.9944 210.371 43.7445 209.058C44.4946 207.745 45.5166 206.714 46.8105 205.964C48.1231 205.195 49.6139 204.811 51.2829 204.811C52.6893 204.811 53.9082 205.073 54.9396 205.598C55.9709 206.123 56.7679 206.883 57.3305 207.877C57.9118 208.852 58.2025 210.024 58.2025 211.393C58.2025 211.749 58.1837 212.115 58.1462 212.49C58.1087 212.865 58.0524 213.212 57.9774 213.53H45.2353L45.6291 211.196H56.3179L54.8833 211.983C55.0333 211.027 54.9677 210.23 54.6864 209.592C54.4051 208.955 53.9551 208.467 53.3363 208.13C52.7174 207.792 51.9767 207.624 51.1141 207.624C50.0827 207.624 49.1826 207.867 48.4138 208.355C47.6637 208.824 47.0824 209.499 46.6698 210.38C46.2573 211.243 46.051 212.255 46.051 213.418C46.051 214.637 46.3979 215.574 47.0918 216.231C47.8043 216.887 48.9013 217.215 50.3828 217.215C51.2266 217.215 52.033 217.084 52.8018 216.821C53.5707 216.54 54.2082 216.156 54.7145 215.668L56.1772 218.115C55.3896 218.809 54.452 219.334 53.3644 219.691C52.2955 220.028 51.1797 220.197 50.0171 220.197ZM68.568 220L72.506 200.31H76.1627L72.2247 220H68.568ZM88.6611 204.811C89.955 204.811 91.052 205.073 91.9521 205.598C92.8522 206.123 93.4804 206.902 93.8367 207.933C94.2118 208.946 94.2493 210.193 93.9493 211.674L92.2897 220H88.7736L90.4051 211.758C90.6489 210.539 90.5363 209.592 90.0675 208.917C89.5987 208.224 88.7455 207.877 87.5079 207.877C86.2139 207.877 85.1451 208.233 84.3012 208.946C83.4574 209.658 82.8854 210.746 82.5854 212.208L81.0102 220H77.4941L80.4758 204.979H83.823L82.9792 209.255L82.4166 207.905C83.1292 206.836 84.0199 206.058 85.0888 205.57C86.1764 205.064 87.3672 204.811 88.6611 204.811ZM105.424 220L109.362 200.31H112.343L118.082 214.74L116.535 214.712L127.758 200.31H130.908L126.97 220H123.51L126.351 205.655L127.167 205.683L117.66 217.75H116.028L111.05 205.655L111.753 205.739L108.912 220H105.424ZM139.658 220.197C138.196 220.197 136.911 219.925 135.805 219.381C134.717 218.819 133.873 218.05 133.273 217.075C132.673 216.081 132.373 214.918 132.373 213.587C132.373 211.899 132.757 210.399 133.526 209.086C134.295 207.755 135.345 206.714 136.677 205.964C138.027 205.195 139.565 204.811 141.29 204.811C142.771 204.811 144.056 205.083 145.143 205.626C146.25 206.151 147.103 206.911 147.703 207.905C148.303 208.88 148.603 210.043 148.603 211.393C148.603 213.062 148.219 214.562 147.45 215.893C146.681 217.225 145.622 218.275 144.271 219.044C142.94 219.812 141.402 220.197 139.658 220.197ZM139.883 217.187C140.896 217.187 141.787 216.953 142.556 216.484C143.324 215.996 143.934 215.331 144.384 214.487C144.834 213.643 145.059 212.668 145.059 211.561C145.059 210.399 144.712 209.48 144.018 208.805C143.324 208.13 142.349 207.792 141.093 207.792C140.099 207.792 139.208 208.036 138.421 208.524C137.652 208.992 137.042 209.649 136.592 210.493C136.142 211.336 135.917 212.312 135.917 213.418C135.917 214.599 136.264 215.528 136.958 216.203C137.652 216.859 138.627 217.187 139.883 217.187ZM156.269 220.197C155.294 220.197 154.45 219.991 153.737 219.578C153.044 219.147 152.537 218.547 152.219 217.778C151.918 216.99 151.872 216.062 152.078 214.993L154.75 201.66H158.266L155.594 214.965C155.481 215.659 155.556 216.221 155.819 216.653C156.081 217.084 156.578 217.3 157.31 217.3C157.647 217.3 157.985 217.253 158.322 217.159C158.679 217.047 158.997 216.897 159.279 216.709L159.898 219.297C159.373 219.634 158.791 219.869 158.154 220C157.516 220.131 156.888 220.197 156.269 220.197ZM151.065 207.905L151.628 205.092H161.613L161.051 207.905H151.065ZM162.846 220L165.828 204.979H169.344L166.362 220H162.846ZM168.388 202.504C167.75 202.504 167.234 202.317 166.84 201.942C166.465 201.548 166.278 201.079 166.278 200.535C166.278 199.898 166.494 199.363 166.925 198.932C167.375 198.501 167.956 198.285 168.669 198.285C169.288 198.285 169.794 198.472 170.188 198.847C170.582 199.204 170.778 199.644 170.778 200.169C170.778 200.863 170.563 201.426 170.131 201.857C169.7 202.288 169.119 202.504 168.388 202.504ZM178.684 220.197C177.222 220.197 175.937 219.925 174.831 219.381C173.743 218.819 172.899 218.05 172.299 217.075C171.699 216.081 171.399 214.918 171.399 213.587C171.399 211.899 171.783 210.399 172.552 209.086C173.321 207.755 174.371 206.714 175.703 205.964C177.053 205.195 178.59 204.811 180.316 204.811C181.797 204.811 183.082 205.083 184.169 205.626C185.276 206.151 186.129 206.911 186.729 207.905C187.329 208.88 187.629 210.043 187.629 211.393C187.629 213.062 187.245 214.562 186.476 215.893C185.707 217.225 184.647 218.275 183.297 219.044C181.966 219.812 180.428 220.197 178.684 220.197ZM178.909 217.187C179.922 217.187 180.813 216.953 181.581 216.484C182.35 215.996 182.96 215.331 183.41 214.487C183.86 213.643 184.085 212.668 184.085 211.561C184.085 210.399 183.738 209.48 183.044 208.805C182.35 208.13 181.375 207.792 180.119 207.792C179.125 207.792 178.234 208.036 177.447 208.524C176.678 208.992 176.068 209.649 175.618 210.493C175.168 211.336 174.943 212.312 174.943 213.418C174.943 214.599 175.29 215.528 175.984 216.203C176.678 216.859 177.653 217.187 178.909 217.187ZM200.836 204.811C202.13 204.811 203.227 205.073 204.127 205.598C205.027 206.123 205.656 206.902 206.012 207.933C206.387 208.946 206.424 210.193 206.124 211.674L204.465 220H200.949L202.58 211.758C202.824 210.539 202.711 209.592 202.243 208.917C201.774 208.224 200.921 207.877 199.683 207.877C198.389 207.877 197.32 208.233 196.476 208.946C195.632 209.658 195.061 210.746 194.761 212.208L193.185 220H189.669L192.651 204.979H195.998L195.154 209.255L194.592 207.905C195.304 206.836 196.195 206.058 197.264 205.57C198.352 205.064 199.542 204.811 200.836 204.811ZM223.253 208.495H233.07L232.479 211.505H222.662L223.253 208.495ZM221.846 216.934H232.985L232.366 220H217.599L221.537 200.31H235.911L235.292 203.376H224.547L221.846 216.934ZM240.217 220L236.757 204.979H240.217L243.198 218.228H241.426L249.724 204.979H253.268L243.845 220H240.217ZM259.864 220.197C258.363 220.197 257.06 219.925 255.954 219.381C254.847 218.819 253.985 218.05 253.366 217.075C252.766 216.081 252.466 214.918 252.466 213.587C252.466 211.88 252.841 210.371 253.591 209.058C254.341 207.745 255.363 206.714 256.657 205.964C257.97 205.195 259.46 204.811 261.129 204.811C262.536 204.811 263.755 205.073 264.786 205.598C265.817 206.123 266.614 206.883 267.177 207.877C267.758 208.852 268.049 210.024 268.049 211.393C268.049 211.749 268.03 212.115 267.993 212.49C267.955 212.865 267.899 213.212 267.824 213.53H255.082L255.476 211.196H266.164L264.73 211.983C264.88 211.027 264.814 210.23 264.533 209.592C264.252 208.955 263.802 208.467 263.183 208.13C262.564 207.792 261.823 207.624 260.961 207.624C259.929 207.624 259.029 207.867 258.26 208.355C257.51 208.824 256.929 209.499 256.516 210.38C256.104 211.243 255.898 212.255 255.898 213.418C255.898 214.637 256.244 215.574 256.938 216.231C257.651 216.887 258.748 217.215 260.229 217.215C261.073 217.215 261.88 217.084 262.648 216.821C263.417 216.54 264.055 216.156 264.561 215.668L266.024 218.115C265.236 218.809 264.299 219.334 263.211 219.691C262.142 220.028 261.026 220.197 259.864 220.197ZM270.022 220L273.004 204.979H276.351L275.507 209.255L275.198 208.017C275.891 206.798 276.773 205.964 277.842 205.514C278.911 205.045 280.214 204.811 281.751 204.811L281.105 208.158C280.955 208.12 280.814 208.102 280.683 208.102C280.551 208.083 280.401 208.074 280.233 208.074C278.864 208.074 277.729 208.439 276.829 209.171C275.929 209.883 275.329 211.027 275.029 212.602L273.538 220H270.022ZM282.921 225.654C282.171 225.654 281.439 225.532 280.727 225.288C279.995 225.044 279.414 224.726 278.983 224.332L280.727 221.772C281.046 222.053 281.402 222.278 281.796 222.447C282.208 222.635 282.677 222.728 283.202 222.728C283.783 222.728 284.299 222.569 284.749 222.25C285.218 221.95 285.687 221.425 286.156 220.675L287.478 218.622L287.815 218.256L296.085 204.979H299.601L289.25 221.322C288.556 222.41 287.89 223.272 287.253 223.91C286.615 224.547 285.949 224.997 285.255 225.26C284.58 225.523 283.802 225.654 282.921 225.654ZM286.774 220.534L283.09 204.979H286.606L289.559 217.947L286.774 220.534ZM305.437 220.197C304.218 220.197 303.102 219.934 302.09 219.409C301.077 218.884 300.28 218.134 299.699 217.159C299.117 216.165 298.827 214.974 298.827 213.587C298.827 212.312 299.033 211.14 299.446 210.071C299.877 209.002 300.477 208.074 301.246 207.286C302.015 206.498 302.905 205.889 303.918 205.458C304.949 205.026 306.065 204.811 307.265 204.811C308.503 204.811 309.572 205.026 310.472 205.458C311.372 205.889 312.066 206.536 312.553 207.398C313.041 208.261 313.285 209.33 313.285 210.605C313.285 212.012 313.107 213.305 312.75 214.487C312.394 215.649 311.878 216.662 311.203 217.525C310.528 218.369 309.703 219.025 308.728 219.494C307.772 219.962 306.675 220.197 305.437 220.197ZM306.337 217.187C307.331 217.187 308.212 216.953 308.981 216.484C309.769 215.996 310.378 215.331 310.809 214.487C311.259 213.643 311.485 212.668 311.485 211.561C311.485 210.399 311.138 209.48 310.444 208.805C309.769 208.13 308.794 207.792 307.518 207.792C306.543 207.792 305.662 208.036 304.874 208.524C304.087 208.992 303.468 209.649 303.018 210.493C302.587 211.336 302.371 212.312 302.371 213.418C302.371 214.581 302.708 215.499 303.384 216.175C304.077 216.85 305.062 217.187 306.337 217.187ZM309.994 220L310.697 216.568L311.625 212.574L312.103 208.552L313.988 199.129H317.504L313.341 220H309.994ZM325.001 220.197C323.782 220.197 322.666 219.934 321.654 219.409C320.66 218.884 319.863 218.134 319.263 217.159C318.681 216.165 318.391 214.974 318.391 213.587C318.391 212.312 318.597 211.14 319.01 210.071C319.441 209.002 320.041 208.074 320.81 207.286C321.579 206.498 322.469 205.889 323.482 205.458C324.513 205.026 325.638 204.811 326.857 204.811C328.114 204.811 329.192 205.036 330.092 205.486C331.011 205.936 331.705 206.62 332.174 207.539C332.642 208.439 332.858 209.564 332.821 210.915C332.783 212.771 332.446 214.402 331.808 215.809C331.17 217.197 330.28 218.275 329.136 219.044C327.992 219.812 326.614 220.197 325.001 220.197ZM325.901 217.187C326.914 217.187 327.804 216.953 328.573 216.484C329.342 215.996 329.951 215.331 330.402 214.487C330.852 213.643 331.077 212.668 331.077 211.561C331.077 210.399 330.73 209.48 330.036 208.805C329.342 208.13 328.367 207.792 327.11 207.792C326.117 207.792 325.226 208.036 324.438 208.524C323.669 208.992 323.06 209.649 322.61 210.493C322.16 211.336 321.935 212.312 321.935 213.418C321.935 214.581 322.282 215.499 322.976 216.175C323.669 216.85 324.645 217.187 325.901 217.187ZM329.586 220L330.261 216.568L331.217 212.574L331.695 208.552L332.399 204.979H335.915L332.933 220H329.586ZM338.208 225.654C337.458 225.654 336.727 225.532 336.014 225.288C335.283 225.044 334.702 224.726 334.27 224.332L336.014 221.772C336.333 222.053 336.69 222.278 337.083 222.447C337.496 222.635 337.965 222.728 338.49 222.728C339.071 222.728 339.587 222.569 340.037 222.25C340.506 221.95 340.974 221.425 341.443 220.675L342.765 218.622L343.103 218.256L351.373 204.979H354.889L344.537 221.322C343.844 222.41 343.178 223.272 342.54 223.91C341.903 224.547 341.237 224.997 340.543 225.26C339.868 225.523 339.09 225.654 338.208 225.654ZM342.062 220.534L338.377 204.979H341.893L344.847 217.947L342.062 220.534Z" fill="white"/>
<g clip-path="url(#clip0_624_27309)">
<path d="M419.884 40.1709C419.884 40.1709 419.854 42.027 419.987 42.6162C420.313 44.1629 422.149 43.8831 422.652 43.3969C427.671 38.4916 438.449 27.8265 438.449 27.8265C438.449 27.8265 439.974 25.9115 437.412 23.805C435.147 21.9489 428.115 18.7081 422.963 18.2515C419.543 17.9421 419.884 20.962 419.884 20.962V40.1709Z" fill="#E0FE10"/>
<path d="M440.21 30.7137L426.25 43.9714C426.25 43.9714 424.888 45.2236 424.532 45.7391C423.629 47.0502 425.11 48.1697 425.805 48.1992C432.838 48.4349 448.042 48.8179 448.042 48.8179C448.042 48.8179 450.485 48.5969 450.248 45.2972C450.041 42.3952 447.539 35.0888 444.311 31.0673C442.165 28.3863 440.21 30.7137 440.21 30.7137Z" fill="#E0FE10"/>
<path d="M446.991 50.9833L427.686 50.8655C427.686 50.8655 425.82 50.8213 425.228 50.9539C423.674 51.2779 423.94 53.1045 424.429 53.5907C429.314 58.6139 439.988 69.4115 439.988 69.4115C439.988 69.4115 441.898 70.9435 444.03 68.4098C445.91 66.1708 449.212 59.2031 449.7 54.0768C450.011 50.674 446.991 50.9833 446.991 50.9833Z" fill="#E0FE10"/>
<path d="M437.694 70.251L423.91 56.8165C423.91 56.8165 422.608 55.5055 422.09 55.1667C420.742 54.3123 419.662 55.8148 419.662 56.5072C419.662 63.5043 419.795 78.6475 419.795 78.6475C419.795 78.6475 420.106 81.0634 423.407 80.7246C426.324 80.4152 433.563 77.69 437.501 74.3461C440.092 72.1218 437.694 70.251 437.694 70.251Z" fill="#E0FE10"/>
<path d="M417.026 58.4666C417.026 58.4666 417.012 56.6105 416.864 56.0212C416.493 54.4892 414.672 54.8133 414.184 55.3142C409.298 60.3521 398.817 71.3118 398.817 71.3118C398.817 71.3118 397.336 73.2563 399.957 75.3038C402.266 77.101 409.387 80.1503 414.539 80.4596C417.959 80.6658 417.545 77.6608 417.545 77.6608L417.026 58.4666Z" fill="#E0FE10"/>
<path d="M412.511 53.0308C413.31 51.6608 411.771 50.6444 411.09 50.6591C404.057 50.8948 388.868 51.5282 388.868 51.5282C388.868 51.5282 386.44 51.9112 386.899 55.1814C387.299 58.0687 390.289 65.1836 393.783 68.9842C396.093 71.5032 397.899 69.0578 397.899 69.0578L410.927 54.9016C410.927 54.9016 412.2 53.5611 412.511 53.0308Z" fill="#E0FE10"/>
<path d="M389.771 49.2893L409.032 48.1255C409.032 48.1255 410.882 48.0371 411.489 47.8751C413.029 47.4479 412.629 45.6507 412.111 45.1941C406.9 40.5097 395.53 30.4486 395.53 30.4486C395.53 30.4486 393.517 29.0492 391.562 31.7154C389.83 34.0724 387.017 41.2462 386.869 46.3873C386.766 49.8048 389.771 49.2893 389.771 49.2893Z" fill="#E0FE10"/>
<path d="M398.328 29.1964L412.57 42.1595C412.57 42.1595 413.917 43.4263 414.45 43.7357C415.827 44.5311 416.849 42.9991 416.819 42.3068C416.582 35.3097 415.931 20.1959 415.931 20.1959C415.931 20.1959 415.546 17.78 412.259 18.2514C409.358 18.6491 402.207 21.6395 398.402 25.116C395.856 27.3992 398.328 29.1964 398.328 29.1964Z" fill="#E0FE10"/>
<path d="M418.3 10.7683C408.07 10.7683 398.447 14.7309 391.207 21.9342C383.982 29.1376 380 38.7126 380 48.8916C380 57.4207 382.798 65.5226 387.965 72.1662C388.217 72.6965 388.424 73.6393 387.965 75.0976C387.906 75.3039 387.861 75.4806 387.861 75.6132C387.817 75.8489 387.787 76.0846 387.787 76.335C387.787 78.3384 389.416 79.9588 391.429 79.9588C391.858 79.9588 392.273 79.8852 392.658 79.7526L392.702 79.7673C392.702 79.7673 392.732 79.7378 392.791 79.7084C392.88 79.6789 392.969 79.6347 393.058 79.5905C393.576 79.399 394.627 79.2517 396.196 80.1208C396.329 80.1945 396.433 80.2387 396.537 80.2829C402.888 84.6727 410.423 87.0296 418.314 87.0296C428.544 87.0296 438.167 83.067 445.407 75.8636C452.646 68.6603 456.629 59.1 456.629 48.9063C456.629 38.7126 452.646 29.1523 445.407 21.949C438.167 14.7456 428.544 10.7683 418.3 10.7683ZM443.023 73.4773C436.42 80.0472 427.641 83.6562 418.314 83.6562C408.973 83.6562 400.208 80.0325 393.605 73.4773C387.003 66.9221 383.361 58.172 383.361 48.8916C383.361 39.6112 387.003 30.8758 393.591 24.3059C400.193 17.736 408.973 14.1269 418.3 14.1269C427.641 14.1269 436.406 17.7507 443.008 24.3059C449.611 30.8758 453.238 39.6112 453.238 48.8916C453.238 58.172 449.626 66.9073 443.023 73.4773Z" fill="#E0FE10"/>
<path d="M439.278 13.7144L448.93 4.18354L444.8 0L434.037 10.8419C434.022 10.8419 438.819 13.0662 439.278 13.7144Z" fill="#E0FE10"/>
<path d="M448.738 21.4185L457.606 12.7273L453.268 8.48486L444.4 17.176C444.4 17.176 447.82 20.1222 448.738 21.4185Z" fill="#E0FE10"/>
<path d="M454.897 32.1279L465.985 21.1535L461.781 16.97L452.202 26.3093C452.217 26.324 454.112 29.4617 454.897 32.1279Z" fill="#E0FE10"/>
<path d="M418.699 53.0013C420.604 53.0013 422.149 51.4646 422.149 49.569C422.149 47.6734 420.604 46.1367 418.699 46.1367C416.794 46.1367 415.25 47.6734 415.25 49.569C415.25 51.4646 416.794 53.0013 418.699 53.0013Z" fill="#E0FE10"/>
</g>
<defs>
<clipPath id="clip0_624_27309">
<rect width="86" height="87" fill="white" transform="translate(380)"/>
</clipPath>
</defs>
</svg>
