<svg width="10" height="10" viewBox="0 0 10 10" fill="none" xmlns="http://www.w3.org/2000/svg">
<path d="M0.292969 0.292908C0.683594 -0.0976562 1.31641 -0.0976562 1.70703 0.292908L5 3.58582L8.29297 0.292908C8.68359 -0.0976562 9.31641 -0.0976562 9.70703 0.292908C10.0977 0.683411 10.0977 1.31659 9.70703 1.70709L6.41406 5L9.70703 8.29291C10.0977 8.68341 10.0977 9.31659 9.70703 9.70709C9.31641 10.0976 8.68359 10.0976 8.29297 9.70709L5 6.41418L1.70703 9.70709C1.31641 10.0976 0.683594 10.0976 0.292969 9.70709C-0.0976562 9.31659 -0.0976562 8.68341 0.292969 8.29291L3.58594 5L0.292969 1.70709C-0.0976562 1.31659 -0.0976562 0.683411 0.292969 0.292908Z"
      fill="#383F4A"
      stroke="#383F4A"/>
</svg>
