<svg width="133" height="43" viewBox="0 0 133 43" fill="none" xmlns="http://www.w3.org/2000/svg">
<g clip-path="url(#clip0_624_26917)">
<path d="M15.8487 17.1825C15.8487 17.1825 15.8369 17.9171 15.8899 18.1503C16.0193 18.7624 16.7488 18.6516 16.9488 18.4593C18.9431 16.5179 23.2259 12.2971 23.2259 12.2971C23.2259 12.2971 23.8318 11.5393 22.8141 10.7056C21.914 9.97105 19.1196 8.68849 17.0724 8.50776C15.7134 8.38534 15.8487 9.58045 15.8487 9.58045V17.1825Z" fill="currentColor"/>
<path d="M23.926 13.4398L18.3784 18.6867C18.3784 18.6867 17.8372 19.1822 17.696 19.3863C17.3371 19.9051 17.9254 20.3482 18.2019 20.3598C20.9963 20.4531 27.0381 20.6047 27.0381 20.6047C27.0381 20.6047 28.0088 20.5172 27.9146 19.2114C27.8323 18.0629 26.8381 15.1713 25.5556 13.5798C24.7026 12.5187 23.926 13.4398 23.926 13.4398Z" fill="currentColor"/>
<path d="M26.6205 21.4617L18.9491 21.415C18.9491 21.415 18.2079 21.3975 17.9726 21.45C17.3549 21.5783 17.4607 22.3012 17.6549 22.4935C19.5962 24.4815 23.8378 28.7548 23.8378 28.7548C23.8378 28.7548 24.5967 29.3611 25.4439 28.3583C26.191 27.4722 27.5029 24.7147 27.697 22.6859C27.8206 21.3392 26.6205 21.4617 26.6205 21.4617Z" fill="currentColor"/>
<path d="M22.9259 29.0871L17.4489 23.7703C17.4489 23.7703 16.9312 23.2514 16.7253 23.1173C16.19 22.7792 15.7605 23.3739 15.7605 23.6479C15.7605 26.417 15.8134 32.4101 15.8134 32.4101C15.8134 32.4101 15.937 33.3661 17.2489 33.2321C18.4078 33.1096 21.2846 32.0311 22.8494 30.7078C23.8789 29.8275 22.9259 29.0871 22.9259 29.0871Z" fill="currentColor"/>
<path d="M14.7133 24.4232C14.7133 24.4232 14.7074 23.6887 14.6486 23.4555C14.5015 22.8492 13.7779 22.9774 13.5838 23.1756C11.6424 25.1694 7.47733 29.5068 7.47733 29.5068C7.47733 29.5068 6.88904 30.2763 7.93032 31.0867C8.84806 31.7979 11.6777 33.0047 13.725 33.1271C15.084 33.2087 14.9192 32.0195 14.9192 32.0195L14.7133 24.4232Z" fill="currentColor"/>
<path d="M12.9192 22.272C13.2368 21.7298 12.625 21.3275 12.3544 21.3334C9.56 21.4267 3.52412 21.6773 3.52412 21.6773C3.52412 21.6773 2.55932 21.8289 2.74169 23.1231C2.90053 24.2658 4.08888 27.0816 5.47725 28.5857C6.39499 29.5826 7.11271 28.6148 7.11271 28.6148L12.2897 23.0124C12.2897 23.0124 12.7956 22.4818 12.9192 22.272Z" fill="currentColor"/>
<path d="M3.88285 20.7912L11.5365 20.3307C11.5365 20.3307 12.2719 20.2957 12.5131 20.2316C13.1249 20.0625 12.9661 19.3513 12.7602 19.1705C10.6894 17.3167 6.17131 13.3349 6.17131 13.3349C6.17131 13.3349 5.37123 12.7811 4.59469 13.8363C3.90639 14.769 2.78863 17.6081 2.7298 19.6427C2.68862 20.9953 3.88285 20.7912 3.88285 20.7912Z" fill="currentColor"/>
<path d="M7.28328 12.8394L12.9427 17.9696C12.9427 17.9696 13.478 18.471 13.6898 18.5934C14.2369 18.9082 14.6428 18.3019 14.6311 18.0279C14.5369 15.2588 14.2781 9.27738 14.2781 9.27738C14.2781 9.27738 14.1251 8.32129 12.8191 8.50784C11.6661 8.66525 8.82461 9.8487 7.3127 11.2245C6.30083 12.1282 7.28328 12.8394 7.28328 12.8394Z" fill="currentColor"/>
<path d="M15.2191 5.54626C11.154 5.54626 7.33013 7.11448 4.45337 9.96526C1.58251 12.816 0 16.6054 0 20.6338C0 24.0093 1.11187 27.2157 3.16501 29.8449C3.26502 30.0548 3.34738 30.4279 3.16501 31.005C3.14148 31.0867 3.12383 31.1566 3.12383 31.2091C3.10618 31.3024 3.09442 31.3956 3.09442 31.4948C3.09442 32.2876 3.74154 32.9289 4.54162 32.9289C4.71222 32.9289 4.87695 32.8997 5.0299 32.8473L5.04755 32.8531C5.04755 32.8531 5.05932 32.8414 5.08285 32.8298C5.11815 32.8181 5.15344 32.8006 5.18874 32.7831C5.39464 32.7074 5.81233 32.6491 6.43592 32.993C6.48887 33.0222 6.53005 33.0397 6.57123 33.0571C9.095 34.7944 12.0894 35.7272 15.225 35.7272C19.2901 35.7272 23.114 34.159 25.9908 31.3082C28.8675 28.4574 30.45 24.6739 30.45 20.6396C30.45 16.6054 28.8675 12.8219 25.9908 9.97109C23.114 7.12031 19.2901 5.54626 15.2191 5.54626ZM25.0436 30.3638C22.4198 32.9639 18.9313 34.3922 15.225 34.3922C11.5129 34.3922 8.03019 32.958 5.40641 30.3638C2.78262 27.7695 1.33542 24.3066 1.33542 20.6338C1.33542 16.961 2.78262 13.504 5.40053 10.9039C8.02431 8.30377 11.5129 6.87546 15.2191 6.87546C18.9313 6.87546 22.4139 8.3096 25.0377 10.9039C27.6615 13.504 29.1028 16.961 29.1028 20.6338C29.1028 24.3066 27.6674 27.7637 25.0436 30.3638Z" fill="currentColor"/>
<path d="M23.5555 6.71222L27.3911 2.94033L25.7498 1.28467L21.4729 5.57541C21.467 5.57541 23.3731 6.45571 23.5555 6.71222Z" fill="currentColor"/>
<path d="M27.3145 9.76127L30.8384 6.32169L29.1147 4.6427L25.5908 8.08229C25.5908 8.08229 26.9498 9.24825 27.3145 9.76127Z" fill="currentColor"/>
<path d="M29.7619 13.9995L34.1682 9.65628L32.4974 8.00061L28.6912 11.6967C28.697 11.7025 29.4501 12.9443 29.7619 13.9995Z" fill="currentColor"/>
<path d="M15.3783 22.2603C16.1353 22.2603 16.749 21.6522 16.749 20.902C16.749 20.1518 16.1353 19.5436 15.3783 19.5436C14.6213 19.5436 14.0076 20.1518 14.0076 20.902C14.0076 21.6522 14.6213 22.2603 15.3783 22.2603Z" fill="currentColor"/>
</g>
<path d="M43.014 9.42279V8.63644C42.6391 8.63644 42.3164 8.90101 42.2429 9.26857L43.014 9.42279ZM51.3 9.42279L52.0712 9.57644C52.1172 9.34549 52.0573 9.10608 51.9079 8.92402C51.7586 8.74197 51.5355 8.63644 51.3 8.63644V9.42279ZM47.6837 27.5748L46.9125 27.4212C46.8664 27.6521 46.9264 27.8915 47.0757 28.0736C47.2251 28.2556 47.4482 28.3612 47.6837 28.3612V27.5748ZM58.7785 27.5748L59.5493 27.7307C59.596 27.4995 59.5365 27.2595 59.3872 27.0769C59.2378 26.8943 59.0144 26.7885 58.7785 26.7885V27.5748ZM57.4794 34V34.7864C57.8536 34.7864 58.176 34.5226 58.2502 34.1558L57.4794 34ZM38.0985 34L37.3275 33.8458C37.2813 34.0768 37.3411 34.3164 37.4904 34.4985C37.6398 34.6807 37.863 34.7864 38.0985 34.7864V34ZM43.014 10.2091H51.3V8.63644H43.014V10.2091ZM50.5288 9.26915L46.9125 27.4212L48.4549 27.7285L52.0712 9.57644L50.5288 9.26915ZM47.6837 28.3612H58.7785V26.7885H47.6837V28.3612ZM58.0077 27.419L56.7087 33.8442L58.2502 34.1558L59.5493 27.7307L58.0077 27.419ZM57.4794 33.2136H38.0985V34.7864H57.4794V33.2136ZM38.8696 34.1542L43.7851 9.57701L42.2429 9.26857L37.3275 33.8458L38.8696 34.1542ZM66.4391 9.42279V8.63644C66.0643 8.63644 65.7416 8.90101 65.668 9.26857L66.4391 9.42279ZM74.7252 9.42279L75.4962 9.57701C75.5424 9.346 75.4826 9.10644 75.3333 8.92425C75.1839 8.74206 74.9607 8.63644 74.7252 8.63644V9.42279ZM69.8097 34V34.7864C70.1846 34.7864 70.5073 34.5218 70.5808 34.1542L69.8097 34ZM61.5237 34L60.7526 33.8458C60.7064 34.0768 60.7662 34.3164 60.9156 34.4985C61.0649 34.6807 61.2881 34.7864 61.5237 34.7864V34ZM66.4391 10.2091H74.7252V8.63644H66.4391V10.2091ZM73.9541 9.26857L69.0386 33.8458L70.5808 34.1542L75.4962 9.57701L73.9541 9.26857ZM69.8097 33.2136H61.5237V34.7864H69.8097V33.2136ZM62.2948 34.1542L67.2102 9.57701L65.668 9.26857L60.7526 33.8458L62.2948 34.1542ZM108.136 9.42279L108.908 9.57489C108.953 9.34412 108.893 9.10511 108.744 8.92342C108.595 8.74172 108.372 8.63644 108.136 8.63644V9.42279ZM103.291 34V34.7864C103.667 34.7864 103.99 34.5207 104.063 34.1521L103.291 34ZM95.7425 34L94.9706 33.85C94.9258 34.0805 94.9864 34.319 95.1357 34.5002C95.2851 34.6814 95.5077 34.7864 95.7425 34.7864V34ZM97.9193 22.7998L98.6913 22.9498C98.7608 22.5919 98.5752 22.2331 98.2428 22.0831C97.9104 21.9331 97.5185 22.0313 97.2962 22.3202L97.9193 22.7998ZM91.0026 31.7881V32.5744C91.2467 32.5744 91.477 32.4611 91.6258 32.2676L91.0026 31.7881ZM87.3512 31.7881L86.6284 32.0978C86.7523 32.3869 87.0366 32.5744 87.3512 32.5744V31.7881ZM83.5592 22.9403L84.282 22.6305C84.1463 22.3139 83.8204 22.1225 83.4778 22.1581C83.1352 22.1938 82.8557 22.4483 82.7882 22.786L83.5592 22.9403ZM81.3473 34V34.7864C81.7221 34.7864 82.0449 34.5218 82.1184 34.1542L81.3473 34ZM73.7986 34L73.0275 33.8458C72.9813 34.0768 73.0411 34.3164 73.1905 34.4985C73.3398 34.6807 73.563 34.7864 73.7986 34.7864V34ZM78.714 9.42279V8.63644C78.3392 8.63644 78.0164 8.90101 77.9429 9.26857L78.714 9.42279ZM85.4552 9.42279L86.1831 9.12536C86.0623 8.82966 85.7746 8.63644 85.4552 8.63644V9.42279ZM90.792 22.4838L90.064 22.7813C90.1699 23.0403 90.4054 23.2236 90.6825 23.2625C90.9596 23.3015 91.2366 23.1902 91.4097 22.9704L90.792 22.4838ZM101.079 9.42279V8.63644C100.838 8.63644 100.611 8.74693 100.462 8.93623L101.079 9.42279ZM107.365 9.2707L102.52 33.8479L104.063 34.1521L108.908 9.57489L107.365 9.2707ZM103.291 33.2136H95.7425V34.7864H103.291V33.2136ZM96.5144 34.15L98.6913 22.9498L97.1474 22.6498L94.9706 33.85L96.5144 34.15ZM97.2962 22.3202L90.3794 31.3085L91.6258 32.2676L98.5425 23.2794L97.2962 22.3202ZM91.0026 31.0017H87.3512V32.5744H91.0026V31.0017ZM88.0739 31.4783L84.282 22.6305L82.8365 23.25L86.6284 32.0978L88.0739 31.4783ZM82.7882 22.786L80.5762 33.8458L82.1184 34.1542L84.3303 23.0945L82.7882 22.786ZM81.3473 33.2136H73.7986V34.7864H81.3473V33.2136ZM74.5697 34.1542L79.4851 9.57701L77.9429 9.26857L73.0275 33.8458L74.5697 34.1542ZM78.714 10.2091H85.4552V8.63644H78.714V10.2091ZM84.7273 9.72023L90.064 22.7813L91.5199 22.1864L86.1831 9.12536L84.7273 9.72023ZM91.4097 22.9704L101.697 9.90935L100.462 8.93623L90.1742 21.9973L91.4097 22.9704ZM101.079 10.2091H108.136V8.63644H101.079V10.2091ZM119.094 15.6724V14.8861C118.718 14.8861 118.395 15.1526 118.323 15.5218L119.094 15.6724ZM118.533 18.5515L117.761 18.4009C117.716 18.6315 117.776 18.8701 117.926 19.0514C118.075 19.2328 118.298 19.3378 118.533 19.3378V18.5515ZM128.925 18.5515L129.696 18.7057C129.743 18.4747 129.683 18.2351 129.533 18.0529C129.384 17.8707 129.161 17.7651 128.925 17.7651V18.5515ZM127.732 24.5202V25.3066C128.106 25.3066 128.429 25.042 128.503 24.6744L127.732 24.5202ZM117.304 24.5202V23.7339C116.928 23.7339 116.604 24.0002 116.532 24.3692L117.304 24.5202ZM116.672 27.7504L115.9 27.5994C115.855 27.83 115.915 28.0687 116.065 28.2502C116.214 28.4316 116.437 28.5367 116.672 28.5367V27.7504ZM128.996 27.7504L129.766 27.9062C129.813 27.675 129.754 27.4351 129.604 27.2525C129.455 27.0699 129.231 26.964 128.996 26.964V27.7504ZM127.732 34V34.7864C128.106 34.7864 128.428 34.5227 128.502 34.1559L127.732 34ZM107.297 34L106.526 33.8458C106.48 34.0768 106.54 34.3164 106.689 34.4985C106.839 34.6807 107.062 34.7864 107.297 34.7864V34ZM112.213 9.42279V8.63644C111.838 8.63644 111.515 8.90101 111.442 9.26857L112.213 9.42279ZM132.191 9.42279L132.961 9.57867C133.008 9.34747 132.949 9.10749 132.799 8.92491C132.65 8.74233 132.426 8.63644 132.191 8.63644V9.42279ZM130.927 15.6724V16.4588C131.301 16.4588 131.623 16.1951 131.697 15.8283L130.927 15.6724ZM118.323 15.5218L117.761 18.4009L119.304 18.7021L119.866 15.823L118.323 15.5218ZM118.533 19.3378H128.925V17.7651H118.533V19.3378ZM128.154 18.3973L126.96 24.366L128.503 24.6744L129.696 18.7057L128.154 18.3973ZM127.732 23.7339H117.304V25.3066H127.732V23.7339ZM116.532 24.3692L115.9 27.5994L117.444 27.9014L118.076 24.6712L116.532 24.3692ZM116.672 28.5367H128.996V26.964H116.672V28.5367ZM128.225 27.5945L126.961 33.8441L128.502 34.1559L129.766 27.9062L128.225 27.5945ZM127.732 33.2136H107.297V34.7864H127.732V33.2136ZM108.068 34.1542L112.984 9.57701L111.442 9.26857L106.526 33.8458L108.068 34.1542ZM112.213 10.2091H132.191V8.63644H112.213V10.2091ZM131.42 9.26691L130.156 15.5165L131.697 15.8283L132.961 9.57867L131.42 9.26691ZM130.927 14.8861H119.094V16.4588H130.927V14.8861Z" fill="white"/>
<defs>
<clipPath id="clip0_624_26917">
<rect width="34.1739" height="34.4309" fill="currentFill" transform="translate(0 1.28473)"/>
</clipPath>
</defs>
</svg>
