<svg width="252" height="120" viewBox="0 0 252 120" fill="none" xmlns="http://www.w3.org/2000/svg">
<path d="M-0.122222 76.6768L-3 78.7969V123H256V2L253.122 4.88485C250.244 7.76969 244.489 13.5394 238.733 25.9637C232.978 38.3881 227.222 57.467 221.467 59.9419C215.711 62.4167 209.956 48.2873 204.2 37.6152C198.444 26.943 192.689 19.7281 186.933 18.146C181.178 16.564 175.422 20.6148 169.667 28.281C163.911 35.9472 158.156 47.2287 152.4 56.6739C146.644 66.119 140.889 73.7278 135.133 70.5291C129.378 67.3304 123.622 53.3241 117.867 48.2348C112.111 43.1455 106.356 46.9732 100.6 53.9221C94.8445 60.8711 89.0889 70.9412 83.3333 78.5754C77.5778 86.2095 71.8222 91.4077 66.0667 87.4706C60.3111 83.5334 54.5556 70.4611 48.8 61.68C43.0444 52.8989 37.2889 48.4091 31.5333 49.857C25.7778 51.3049 20.0222 58.6906 14.2667 64.5036C8.51111 70.3165 2.75556 74.5567 -0.122222 76.6768Z" fill="url(#paint0_linear_44_1943)" stroke="#E0FE10"/>
<defs>
<linearGradient id="paint0_linear_44_1943" x1="126.5" y1="2" x2="126.5" y2="123" gradientUnits="userSpaceOnUse">
<stop stop-color="#E0FE10"/>
<stop offset="0.899063" stop-color="#E0FE10" stop-opacity="0"/>
</linearGradient>
</defs>
</svg>
