<svg width="252" height="131" viewBox="0 0 252 131" fill="none" xmlns="http://www.w3.org/2000/svg">
<path d="M0 110.311L2.8 101.024C5.6 91.7368 11.2 73.1624 16.8 66.8949C22.4 60.6274 28 66.6668 33.6 72.0879C39.2 77.509 44.8 82.3117 50.4 84.7664C56 87.221 61.6 87.3276 67.2 85.7303C72.8 84.1331 78.4 80.8319 84 79.6215C89.6 78.4111 95.2 79.2913 100.8 82.6582C106.4 86.0252 112 91.8788 117.6 86.3348C123.2 80.7908 128.8 63.8493 134.4 54.2077C140 44.5661 145.6 42.2245 151.2 41.2379C156.8 40.2514 162.4 40.62 168 40.7415C173.6 40.8629 179.2 40.7371 184.8 42.6567C190.4 44.5763 196 48.5413 201.6 50.6309C207.2 52.7204 212.8 52.9346 218.4 54.797C224 56.6594 229.6 60.1701 235.2 51.4787C240.8 42.7872 246.4 21.8936 249.2 11.4468L252 1" stroke="#5B21B6" stroke-opacity="0.3"/>
<path d="M2.8 101.024L0 110.311V131.338H252V1L249.2 11.4468L249.2 11.447C246.4 21.8938 240.8 42.7873 235.2 51.4787C229.6 60.1702 224 56.6594 218.4 54.797C212.8 52.9346 207.2 52.7204 201.6 50.6309C196 48.5413 190.4 44.5763 184.8 42.6567C179.2 40.7371 173.6 40.8629 168 40.7415C162.4 40.62 156.8 40.2514 151.2 41.2379C145.6 42.2245 140 44.5661 134.4 54.2077C128.8 63.8493 123.2 80.7908 117.6 86.3348C112 91.8788 106.4 86.0252 100.8 82.6582C95.2 79.2913 89.6 78.4111 84 79.6215C78.4 80.832 72.8 84.1331 67.2 85.7304C61.6 87.3276 56 87.221 50.4 84.7664C44.8 82.3117 39.2 77.509 33.6 72.0879C28 66.6668 22.4 60.6274 16.8 66.8949C11.2 73.1624 5.6 91.7368 2.8 101.024Z" fill="url(#paint0_linear_44_1969)"/>
<defs>
<linearGradient id="paint0_linear_44_1969" x1="126" y1="1" x2="126" y2="131.338" gradientUnits="userSpaceOnUse">
<stop offset="0.414307" stop-color="#7E51FF"/>
<stop offset="1" stop-color="#7E51FF" stop-opacity="0"/>
</linearGradient>
</defs>
</svg>
