<?xml version="1.0" encoding="iso-8859-1"?>
<!-- Uploaded to: SVG Repo, www.svgrepo.com, Generator: SVG Repo Mixer Tools -->
<svg height="50" width="50" version="1.1" id="Capa_1" xmlns="http://www.w3.org/2000/svg" xmlns:xlink="http://www.w3.org/1999/xlink" 
	 viewBox="0 0 420 420" xml:space="preserve">

			<path d="M333.768,200.631c-47.551,0-86.234,38.684-86.234,86.23c0,47.549,38.684,86.232,86.234,86.232
				c47.549,0,86.232-38.684,86.232-86.232C420,239.315,381.316,200.631,333.768,200.631z M333.768,347.305
				c-33.328,0-60.443-27.113-60.443-60.443c0-33.328,27.115-60.443,60.443-60.443c33.326,0,60.441,27.115,60.441,60.443
				C394.209,320.192,367.094,347.305,333.768,347.305z"/>
			<path d="M86.234,200.631C38.683,200.631,0,239.315,0,286.861c0,47.549,38.684,86.232,86.234,86.232
				c47.547,0,86.23-38.684,86.23-86.232C172.465,239.315,133.781,200.631,86.234,200.631z M86.234,347.305
				c-33.33,0-60.443-27.113-60.443-60.443c0-33.328,27.113-60.443,60.443-60.443c33.326,0,60.441,27.115,60.441,60.443
				C146.676,320.192,119.561,347.305,86.234,347.305z"/>
			<path d="M218.662,195.481L194.65,176.85l47.371-24.236l39.959,33.33c2.691,2.246,6.109,3.676,9.881,3.873l38.078,2.002
				c9.045,0.484,17.219-5.875,18.779-15.02c1.682-9.846-4.941-16.221-14.787-17.902l-38.951-5.816c0,0-28.393-39.164-34.818-45.875
				c-19.182-20.041-30.678-31.303-52.74-20.404l-67.326,33.264c-19.373,9.748-32.051,35.586-21.15,57.646
				c5.363,10.854,13.783,16.334,26.082,24.316l38.975,23.773l4.633,74.486c0.66,10.307,9.264,18.482,19.723,18.416
				c10.842-0.068,19.576-8.916,19.506-19.762l-0.559-86.715C227.223,205.858,224.227,199.491,218.662,195.481z"/>
			<path d="M276.707,117.723c4.279,2.879,9.125,4.873,14.184,5.861l0.053,0.01c12.533,2.432,25.715-1.604,34.754-10.619
				c9.168-9.15,13.195-22.682,10.521-35.357c-2.602-12.348-11.33-22.918-22.986-27.77c-11.928-4.959-25.836-3.584-36.547,3.637
				c-10.713,7.219-17.205,19.594-17.086,32.512C259.721,98.62,266.24,110.678,276.707,117.723z"/>

</svg>